<?xml version="1.0" encoding="UTF-8" standalone="no" ?>
<!DOCTYPE svg PUBLIC "-//W3C//DTD SVG 1.1//EN" "http://www.w3.org/Graphics/SVG/1.1/DTD/svg11.dtd">
<svg xmlns="http://www.w3.org/2000/svg" xmlns:xlink="http://www.w3.org/1999/xlink" version="1.1" width="1280" height="1024" viewBox="0 0 1280 1024" xml:space="preserve">
<desc>Created with Fabric.js 5.3.0</desc>
<defs>
</defs>
<g transform="matrix(1 0 0 1 640 512)" id="background-logo"  >
<rect style="stroke: none; stroke-width: 0; stroke-dasharray: none; stroke-linecap: butt; stroke-dashoffset: 0; stroke-linejoin: miter; stroke-miterlimit: 4; fill: rgb(255,255,255); fill-opacity: 0; fill-rule: nonzero; opacity: 1;"  paint-order="stroke"  x="-640" y="-512" rx="0" ry="0" width="1280" height="1024" />
</g>
<g transform="matrix(2.6786219180183926 0 0 2.6786219180183926 593.6424908172494 465.59905998506815)" id="logo-logo"  >
<g style=""  paint-order="stroke"   >
		<g transform="matrix(0.4191888123248553 0 0 0.41918881232485533 18.580427790953138 -29.916774882943685)"  >
<path style="stroke: none; stroke-width: 1; stroke-dasharray: none; stroke-linecap: butt; stroke-dashoffset: 0; stroke-linejoin: miter; stroke-miterlimit: 4; fill: rgb(220,129,131); fill-rule: nonzero; opacity: 1;"  paint-order="stroke"  transform=" translate(-334.0623754620505, -216.631745858488)" d="M 386.8071289 279.2923584 C 379.90063480000003 274.2038574 370.4335937 273.8112793 363.0234375 278.6751709 C 359.2426758 281.15661620000003 355.739502 275.0927734 359.4904785 272.6308594 C 369.9179687 265.78674320000005 384.0637207 267.1016846 393.1481933 275.42395020000004 C 412.5085449 262.5189209 427.0466308 242.21252440000004 427.59326169999997 218.30102540000004 C 427.99853509999997 200.57672120000004 420.3942871 184.08221440000005 406.61962889999995 173.62078860000003 C 406.45263669999997 178.53369140000004 404.72338869999993 183.54144290000002 401.69238279999996 187.06671150000003 C 409.25244139999995 190.19305430000003 415.39477539999996 196.47882090000002 416.0490723 205.02050790000004 C 416.8654785 215.68042000000003 409.4863282 224.60083020000005 399.7348633 226.80664070000003 C 404.57373049999995 233.60925300000002 403.54394529999996 243.38781750000004 399.203125 250.62219250000004 C 396.8852539 254.48510750000003 390.8352051 250.96154800000005 393.1589355 247.08923350000003 C 395.7927246 242.69958510000004 397.30932609999996 237.46179210000003 394.9746093 232.56689460000004 C 392.6899413 227.77697760000004 387.9799804 226.73205570000005 383.2287597 225.80188000000004 C 373.3483886 223.86767590000005 363.3869628 222.29028330000003 353.4309081 220.80236830000004 C 352.4299315 222.71521010000004 350.9909667 224.46252450000003 349.13354480000004 225.87109390000003 C 345.5410155 228.59582530000003 342.05688460000005 222.51428240000004 345.60058580000003 219.82678240000004 C 349.2998046 217.02124040000004 348.6225585 212.26806660000005 345.5268553 209.45520040000005 C 344.13403300000004 209.98059100000006 342.6884764 210.37219260000006 341.1989744 210.57543970000006 C 339.3183592 210.83215360000005 337.4489744 210.15246610000005 336.8935545 208.13085960000006 C 336.4404295 206.48230000000007 337.4631346 204.08136010000007 339.3378904 203.82550070000008 C 343.0417478 203.32006860000007 346.12133769999997 201.80480980000007 348.6552732 199.04351830000007 C 351.7089841 195.7156985000001 356.64624000000003 200.6790163000001 353.6049802 203.99328640000007 C 353.0234372 204.62695340000008 352.3935544 205.20953400000008 351.7431638 205.76635770000007 C 353.9030759 208.19165070000008 354.9677732 211.09094270000008 355.0417478 214.02404810000007 L 355.1369626 214.02880880000006 C 362.6472165 215.15039080000005 370.1430661 216.36230490000005 377.6198728 217.68896500000005 C 382.0366208 218.47277850000006 386.9826658 218.94897480000006 391.3308103 220.58166520000006 C 391.8173826 220.32495130000007 392.4057615 220.18505880000006 393.1225583 220.24926770000005 C 402.2067868 221.06286630000005 410.2136228 214.28955090000005 408.9904782 204.77563490000006 C 407.9938962 197.02380380000005 399.399902 192.27441420000005 392.13330049999996 191.88464370000005 L 392.0297849 191.86877460000005 C 390.56909149999996 191.90533470000005 389.0141599 191.70184340000006 387.3713376 191.21557640000006 C 383.0546872 189.93780540000006 384.9038083 183.18438740000005 389.2324216 184.46557640000006 C 398.5227048 187.21557640000006 400.4704587 175.88165310000005 399.0471189 168.81835960000006 L 398.86499 168.71997090000008 C 384.38110329999995 161.22869890000007 366.47631809999996 160.72149680000007 351.5915525 167.38079850000008 C 349.80249 168.18115250000008 347.8457029 169.0997926000001 345.9636228 168.5529787000001 C 344.6728513 168.1779787000001 343.6787107 167.1749880000001 342.7148435 166.2382204000001 C 340.5307615 164.1158449000001 338.5932615 161.8697512000001 336.73095679999994 159.60028090000012 C 329.3520505999999 164.4631959000001 320.23486299999996 166.3108522000001 310.89331029999994 164.62506120000012 C 306.45996069999995 163.8250124000001 308.34960909999995 157.0802004000001 312.75415009999995 157.8751222000001 C 319.82617159999995 159.15136730000012 326.6704098999999 157.71051040000012 332.30590789999997 154.14355480000012 C 327.0139157 147.7311402000001 321.20556609999994 141.7935182000001 310.9204099 138.6558839000001 C 308.6623533 140.5952150000001 306.94604469999996 143.1993409000001 306.0024411 146.32287610000012 C 304.7011716 150.63085950000013 297.9470212 148.78375260000013 299.2524411 144.46197520000013 C 300.0979001 141.66320810000013 301.3984372 139.15191660000013 303.0434567 136.9655152000001 C 298.3210446 136.31951910000012 292.853027 136.13500980000012 286.3906247 136.5592652000001 C 267.172363 137.82086190000012 245.81518519999997 151.16162120000013 241.3566892 175.9408570000001 C 245.7197263 176.28320320000012 250.0932615 176.2404786000001 254.4880369 175.8504639000001 C 255.0458982 174.4048462000001 255.7534178 172.99761970000012 256.6611326 171.6502076000001 C 259.16748029999997 167.9295655000001 265.2292478 171.4368897000001 262.70556619999996 175.1832276000001 C 260.6472166 178.2388917000001 259.522949 181.8153077000001 260.0361326 185.5279542000001 C 260.293701 187.3915406000001 259.61499 189.3000489000001 257.5915525 189.8333741000001 C 255.93749979999998 190.2694093000001 253.5471189 189.2756959000001 253.28613259999997 187.3888551000001 C 253.07958959999996 185.89422620000008 253.00707989999998 184.4143678000001 253.05737279999997 182.9550172000001 C 248.87304659999998 183.2486573000001 244.72436499999998 183.2087403000001 240.58203099999997 182.8591310000001 C 240.28637669999998 189.02734390000012 240.97314429999997 195.79620380000011 242.87744119999996 203.1610109000001 C 246.22558569999995 199.5695802000001 251.04785139999996 197.48223890000008 256.18310529999997 198.0709230000001 C 260.6142576 198.5788576000001 260.65087869999996 205.5830690000001 256.18310529999997 205.0709230000001 C 251.97460919999997 204.58850110000012 247.62963849999997 206.6073000000001 246.07885729999995 210.7559816000001 C 245.94873029999997 211.1042482000001 245.77221669999994 211.3961183000001 245.57812489999995 211.6633302000001 C 248.05615219999996 217.6507570000001 252.29833969999996 222.8192140000001 257.12304679999994 227.2689210000001 C 260.49609369999996 217.23620620000008 271.00537099999997 211.6209718000001 281.34667959999996 214.45397960000008 C 281.6899413 213.25866710000008 282.10693349999997 212.06945810000008 282.62207019999994 210.8873292000001 C 283.37597639999996 209.15747080000008 285.93701159999995 208.7487794000001 287.41088859999996 209.6317140000001 C 289.1665038 210.6834718000001 289.42700189999994 212.6748048000001 288.6665038 214.4204103000001 C 287.1550292 217.8887941000001 286.9135741 221.7052003000001 287.7568358 225.3666994000001 L 287.7890624 225.6182863000001 L 287.7978515 225.6851808000001 C 287.824707 225.8666994000001 287.85302729999995 226.0482179000001 287.8540038 226.2198488000001 L 287.8625487 226.3021242000001 C 287.8625487 226.65820330000008 287.8625487 227.0144045000001 287.8625487 227.3706056000001 C 287.8625487 228.3189699000001 287.46606429999997 229.1606447000001 286.8374022 229.84545910000008 C 286.20654279999997 230.53271500000008 285.2678221 230.8300782000001 284.3625487 230.8706056000001 C 283.8808592 230.8887941000001 283.4311522 230.7883302000001 283.01416 230.5690919000001 C 282.5803221 230.4279786000001 282.2048338 230.1867677000001 281.8876952 229.8454591000001 C 281.2531737 229.2106935000001 280.8625487 228.2679445000001 280.8625487 227.37060560000012 C 280.8625487 227.06872570000013 280.8625487 226.7668458000001 280.8625487 226.46496600000012 C 280.5249022 224.7813722000001 280.3530272 223.1180422000001 280.3505858 221.47314470000012 C 272.3657225 218.96398940000012 264.9494628 223.24987810000013 263.2219237 231.51306170000012 C 263.1701659 231.7606203000001 263.0942382 231.98181170000012 263.0083007 232.19055190000012 C 264.0344237 232.97375500000012 265.0651855 233.73132340000012 266.0915527 234.45959490000013 C 271.8483886 238.54443380000012 277.9284668 242.33190940000011 283.4682617 246.68322770000012 C 287.4111328 243.84021010000012 290.3798828 239.76391620000012 291.87426760000005 235.01293960000012 C 293.22338870000004 230.72363300000012 299.97875980000003 232.56665050000012 298.62426760000005 236.87390150000013 C 296.79736330000003 242.68273940000012 293.38818360000005 247.63269060000013 288.84521490000003 251.30480970000013 C 290.548584 252.92688000000012 292.16162110000005 254.64147960000014 293.64306650000003 256.49060070000013 C 294.57763680000005 257.65710460000014 295.43383800000004 258.8839112000001 296.2485353 260.13781750000015 C 301.7568361 253.91467300000016 308.4921876 248.96093760000016 317.3972169 249.30090340000015 C 319.2773439 249.37268070000016 321.1877442 249.79309090000015 323.04003919999997 250.49060070000016 C 322.5856935 244.58679210000017 324.416504 238.64172370000017 329.7626954 235.44042980000015 C 336.8222657 231.21313490000014 349.6574708 230.97253430000015 352.90551769999996 239.93579110000016 C 354.44531259999997 244.18554700000016 347.6784669 245.99938970000017 346.15551769999996 241.79675300000017 C 344.67114269999996 237.70068370000016 334.90161149999994 239.92626960000015 332.46289069999995 242.10107430000016 C 328.45117189999996 245.67883310000016 329.66967779999993 252.37341320000016 331.99853519999994 256.70568860000014 C 334.92358399999995 260.0289308000001 336.7749023999999 264.1678468000001 336.59960939999996 268.4785157000001 C 336.41674809999995 272.97473150000013 329.4162598 272.9831544000001 329.59960939999996 268.4785157000001 C 329.6914063 266.2253419000001 328.9560547 264.1712647000001 327.7216797 262.4107667000001 C 327.27929689999996 262.14685070000013 326.871582 261.7738038000001 326.5375977 261.2474366000001 C 326.4038086 261.03637700000013 326.2854004 260.80798350000015 326.1577149 260.5894776000001 C 322.90185549999995 257.44775400000015 317.9221192 255.76721200000011 313.7902833 256.57006840000014 C 307.8295899 257.72814950000014 303.4526368 261.95788580000016 299.7780763 266.63244630000014 C 301.3728029 270.2735596000001 302.4843751 274.12365720000014 303.0373536 278.06018070000016 C 303.6225587 282.22436530000016 303.56811530000004 286.59094240000013 301.97216810000003 290.48144530000013 L 301.9238283 290.5979004000001 C 300.6105959 293.7221680000001 302.9396974 297.1354981000001 306.3222658 296.92321780000015 C 306.71240250000005 296.89880370000014 307.10302750000005 296.8782959000001 307.4934084 296.85607910000016 C 312.162842 289.85021970000014 314.1748049 281.33557130000014 312.8752443 272.87402340000017 C 312.1975099 268.45983880000017 318.94360370000004 266.57458490000016 319.6252443 271.01318360000016 C 321.0009767 279.9710693000002 319.64501970000003 288.74011230000013 315.7275392 296.50280760000015 C 319.13012710000004 296.3858642000001 322.5334474 296.27746580000013 325.9291994 296.08947750000016 C 326.4853517 295.3218994000002 327.3339846 294.7426757000002 328.4865724 294.6091308000002 C 335.4758302 293.79931630000016 340.8425294 288.14929190000015 342.1679689 281.4217529000002 C 343.0393068 276.99890130000017 349.78466810000003 278.8825683000002 348.9179689 283.2827148000002 C 348.1079103 287.3939209000002 346.1943361 291.0064697000002 343.5461427 293.9327392000002 C 358.25512710000004 291.0721435000002 372.77612320000003 286.9298095000002 386.00512710000004 279.7418212000002 C 386.2741699 279.5955811 386.5393066 279.4412842 386.8071289 279.2923584 z M 284.1818848 169.7817993 C 284.91113279999996 169.67431639999998 285.5478516 169.8271484 286.0708008 170.1502075 C 289.4733887 171.4345093 289.16210939999996 177.2651977 285.0522461 176.90606689999998 L 284.9150391 176.8880615 C 277.1069336 180.01831049999998 274.8256836 188.84197999999998 279.2312012 195.80389399999999 C 281.6496582 199.6255493 275.5895996 203.13366689999998 273.18701169999997 199.3369751 C 267.5634765 190.4506226 269.68554689999996 179.9443359 276.92333979999995 173.76843259999998 C 273.59692379999996 171.24749749999998 271.35913079999995 167.41589349999998 271.38330069999995 162.89025879999997 C 271.42431629999993 155.24859619999998 277.98730459999996 149.56695559999997 285.25415029999994 149.07366939999997 C 289.75830069999995 148.76788329999997 289.72460929999994 155.77020259999998 285.25415029999994 156.07366939999997 C 276.9421387 156.6379395 276.4311523 168.2894897 284.1818848 169.7817993 z M 393.0637207 201.6279907 C 397.4941406 202.4486694 395.60644529999996 209.1936035 391.20288089999997 208.3779297 C 383.67626959999996 206.9838257 376.1499024 205.5897217 368.6235352 204.1956177 C 364.1928711 203.374939 366.0808106 196.63000490000002 370.484375 197.4456787 C 378.0107422 198.8397827 385.5373535 200.2338867 393.0637207 201.6279907 z M 326.1491699 188.8014526 C 325.7202148 188.8499755 325.2568359 188.8225708 324.7558594 188.6784057 C 318.80078130000004 186.96472160000002 312.71875 185.2484741 306.52905280000004 184.6532592 C 303.41796880000004 184.3541259 300.59716800000007 184.2179565 299.54711920000005 187.79681390000002 C 298.93115240000003 189.89624020000002 299.55542 192.89324940000003 300.33471690000005 194.89813230000001 C 304.25195320000006 204.97509760000003 316.43212900000003 203.56213380000003 323.25537120000007 210.12927240000002 C 328.0764161000001 214.76953120000002 328.67138680000005 222.83483880000003 322.80126960000007 226.8980712 C 315.6203614000001 231.8684081 304.35424810000006 230.5063476 296.98730480000006 226.868286 C 292.94384780000007 224.87145980000003 296.4948732000001 218.8359374 300.52050790000004 220.82397450000002 C 305.32690440000005 223.19763170000002 312.36987310000006 224.08874500000002 317.4470216 221.83227530000002 C 323.36865250000005 219.20043940000002 318.00756850000005 214.39306630000002 314.3691407 212.84753410000002 C 306.5163575 209.51171870000002 298.5195313 207.21594230000002 294.4726563 198.89324940000003 C 291.4926758 192.76446520000002 290.9487305 182.65087880000004 297.8266602 178.86059560000004 C 301.57714849999996 176.79382310000003 306.0773926 177.52160630000003 310.1010743 178.10632310000003 C 314.4367677 178.73638900000003 318.6906739 179.74334700000003 322.9111329 180.89031970000002 C 323.3300782 180.84045400000002 323.7797852 180.85723860000002 324.26635749999997 180.9852294 C 327.16235359999996 181.74731440000002 334.88354499999997 184.6907348 336.58935549999995 183.8911132 C 338.33374029999993 183.0733031 339.5324707 176.89776600000002 340.9875489 175.1735229 C 342.62670909999997 173.2314453 344.88647469999995 171.8991088 347.3676759 171.355957 C 352.8466798 170.15673819999998 358.2614747 173.3342285 360.7248536 178.1851806 C 362.2653809 181.218872 362.0534669 183.44812009999998 365.7595216 184.59545889999998 C 369.79028330000006 185.8433227 374.6867677 185.99603259999998 378.8603517 186.65081779999997 C 383.3046876 187.34808339999998 381.4064943 194.09216299999997 376.9995119 193.40075679999998 C 371.46362320000003 192.53222649999998 361.7971193 192.9467163 357.7207033 188.37451169999997 C 356.08593770000004 186.54071039999997 355.7609865 184.26123049999998 354.8015138 182.09869379999998 C 353.6408693 179.48254389999997 351.5615236 177.5464477 348.5534669 178.42834469999997 C 346.1848146 179.12286369999998 345.6381837 180.91326899999996 344.794922 183.01721189999998 C 343.1826173 187.04095459999996 341.015381 191.0366211 336.1672365 190.86102289999997 C 332.8193359 190.7397461 329.4433594 189.770813 326.1491699 188.8014526 z M 348.4494629 259.8896484 C 344.0136719 259.1071777 345.9047852 252.3626709 350.3103027 253.1396484 C 355.7819824 254.1048584 361.81445310000004 254.0792236 366.47778320000003 250.6534423 C 370.7495117 247.5151366 372.3730469 242.2093505 369.4033203 237.6103515 C 366.94970700000005 233.8110351 373.0119629 230.305664 375.44750980000003 234.0772704 C 379.71801760000005 240.69042960000002 378.28125000000006 249.2760009 372.6315918 254.62695300000001 C 366.057373 260.8535156 356.9384766 261.387085 348.4494629 259.8896484 z" stroke-linecap="round" />
</g>
		<g transform="matrix(0.4191888123248553 0 0 0.41918881232485533 0 0)"  >
<path style="stroke: none; stroke-width: 1; stroke-dasharray: none; stroke-linecap: butt; stroke-dashoffset: 0; stroke-linejoin: miter; stroke-miterlimit: 4; fill: rgb(42,169,199); fill-rule: nonzero; opacity: 1;"  paint-order="stroke"  transform=" translate(-288.00000228618285, -288.00000284278775)" d="M 117.5317307 291.8919678 L 117.5707932 292.0203858 C 117.3593674 291.8572999 117.292717 291.5880128 117.3032151 291.4500733 C 117.3737717 291.5976562 117.457756 291.7629395 117.5317307 291.8919678 z M 152.310791 292.0203857 L 152.2717285 291.8919677 C 152.19775389999998 291.7629394 152.1137695 291.5976562 152.0432129 291.4500732 C 152.0327148 291.5880127 152.0993652 291.8572998 152.310791 292.0203857 z M 457.3681641 336.5145264 C 445.0893555 350.54211430000004 429.6762696 361.26159670000004 416.3549805 374.20678710000004 C 404.3681641 385.85485840000007 393.4665528 399.8780517 391.3601075 416.8721924 C 389.0927735 437.1154785 397.26806650000003 456.5592041 405.1955567 474.7194824 C 406.6643067 478.0841064 405.00073249999997 482.227417 400.8781739 482.243042 C 389.30541999999997 482.2869873 377.7329102 482.3310547 366.1604005 482.375 C 325.2871095 482.5302734 284.4138185 482.6856689 243.5405275 482.8409424 C 243.1835939 482.8422852 242.827881 482.7952881 242.4785158 482.71301270000004 C 231.2524416 482.7556152 220.0263674 482.79821780000003 208.8002931 482.8409424 C 206.21728530000001 482.8508301 203.6445314 480.5338135 203.8002931 477.8409424 C 203.91284190000002 475.8979492 203.9143068 473.95544440000003 203.7666017 472.0141602 C 203.6176759 470.057129 203.5737306 469.7807618 203.1242677 467.6867676 C 202.76293959999998 466.0029297 202.2993165 464.3417969 201.7451173 462.7114258 C 201.0825196 460.76098629999996 200.9138185 460.35058599999996 200.09155280000002 458.63781739999996 C 193.5678712 445.0496826 181.53955080000003 435.2503662 167.8017579 428.85241699999995 C 164.7866212 427.4482421999999 161.2075196 426.15478519999994 157.5354005 425.00353999999993 C 153.807129 423.8344725999999 150.04589850000002 422.7718504999999 146.3237306 421.5828856999999 C 138.4311525 419.0620116999999 130.6730958 415.9302977999999 124.2912523 410.51818839999993 C 117.46654529999999 404.73010249999993 113.72435779999999 396.4062498999999 111.5913011 387.8828123999999 C 109.14574449999999 378.1103514999999 108.00926989999999 367.9014891999999 108.3347093 357.8319090999999 C 108.6176683 349.0833738999999 109.9343187 340.3331297999999 111.9970628 331.83166499999993 C 113.089348 327.32897949999995 114.20165259999999 322.83251949999993 115.17137919999999 318.30102539999996 C 115.78466039999999 315.43530269999997 116.35204329999999 312.55895999999996 116.8417894 309.66931149999994 C 116.9829027 308.83679199999995 117.1174242 308.00317379999996 117.2443773 307.16833489999993 C 117.3071214 306.7546385999999 117.36498279999999 306.34033199999993 117.4267503 305.9265135999999 L 117.4340745 305.87744129999993 C 117.6149827 304.46655259999994 117.7753831 303.05322249999995 117.8925706 301.6354978999999 C 118.0952073 299.1831052999999 118.2038499 296.7015378999999 118.0029222 294.2451169999999 C 117.9916917 294.1097409999999 117.9958421 293.92944319999987 117.9872972 293.7535398999999 L 117.9260179 293.5355222999999 C 117.8349534 293.1032712999999 117.7570726 292.6712644999999 117.6389085 292.2446286999999 L 117.5707933 292.0203854999999 L 117.67406480000001 292.0933834999999 C 117.64672100000001 292.0808102999999 117.59301010000001 291.9990230999999 117.5317308 291.8919674999999 L 117.4601976 291.6566158999999 L 117.4118578 291.4910885999999 L 117.30638900000001 291.4191891999999 L 117.30321520000001 291.4500729999999 L 117.27977770000001 291.40112279999994 L 117.17919180000001 291.33251929999994 C 116.97484610000001 291.19836399999997 116.7707445 291.06420879999996 116.56664300000001 290.93005349999993 C 116.15819570000001 290.66174299999994 115.74974850000001 290.39343239999994 115.3415453 290.12512189999995 C 113.19774650000001 288.71655259999994 111.05370350000001 287.30798319999997 108.90990470000001 285.89941389999996 C 104.64891840000001 283.0998534 100.2477953 280.43688949999995 96.10961170000002 277.45861799999994 C 92.28588120000002 274.70654279999997 89.21459220000001 270.81188949999995 89.68358630000002 265.83374009999994 C 90.08763900000001 261.54711899999995 92.67308830000002 257.91113269999994 95.88744370000002 255.18286119999993 C 99.24144760000001 252.33618149999992 102.96849840000002 250.42211899999992 106.83226790000002 248.39648419999995 C 110.53881090000002 246.45336899999995 114.14330310000003 244.31347639999996 117.61425030000002 241.97509749999995 C 124.37792220000003 237.41809069999994 130.58203140000003 232.01269519999994 136.05566420000002 225.71545389999994 C 147.20507830000003 212.88842749999995 152.63281260000002 196.79455549999994 157.86840830000003 180.66253639999994 C 163.31274420000003 163.88757299999995 169.19799810000004 147.17626929999994 180.90014660000003 133.62774639999992 C 192.20166030000001 120.54302199999992 207.34667980000003 111.40471629999992 223.21948250000003 104.93700389999992 C 248.00488290000004 94.83757759999992 275.4521485 91.33226759999992 302.1520997 94.04265579999992 C 323.3720704 91.87059769999992 345.0490724 93.71794879999992 365.4736329 99.41875439999993 C 398.10131839999997 108.52562699999993 427.4714356 127.91643509999993 448.9562989 154.0754392999999 C 469.9863282 179.68029769999993 483.52319339999997 210.98986799999992 485.97460939999996 244.15588359999992 C 488.4165039 277.1939697 479.4272461 311.3132324 457.3681641 336.5145264 z M 390.6818848 352.7705078 C 397.67773439999996 346.8109131 404.7053223 340.85607910000004 411.1123047 334.25463870000004 C 417.00561519999997 328.18249510000004 421.7023926 322.2332764 426.0090332 314.96459960000004 C 441.96435549999995 288.03540040000007 445.03442379999996 254.60473630000004 438.3037109 224.44580080000003 C 431.4548339 193.7581177 414.6740722 166.01770020000004 391.635498 144.68243410000002 C 380.2089843 134.10064700000004 367.39013669999997 125.30248260000002 353.1022949 118.42308810000003 C 337.513916 110.91747290000004 320.1135254 106.03063200000003 303.0676269 104.16588600000003 C 302.842041 104.14122780000002 302.6159667 104.12230690000003 302.39013669999997 104.09850320000002 C 296.58203119999996 104.72460180000003 290.8137207 105.66533670000003 285.11865229999995 106.94335180000003 C 268.52563469999996 110.66710670000003 252.84082029999996 116.66405490000002 238.80786129999996 126.32305150000003 C 232.37524409999995 130.75061040000003 226.29931639999995 136.22393800000003 221.20410149999995 142.49871830000004 C 216.45898429999994 148.34222420000003 212.25366199999996 156.17266850000004 209.36987299999996 163.16772460000004 C 202.76000969999996 179.20056150000005 199.01269529999996 196.27496340000005 191.53149409999995 211.97326660000004 C 184.05712889999995 227.65734860000003 172.19506829999995 240.52709960000004 157.89648429999994 250.27429200000006 C 154.43798819999995 252.63183590000006 150.84472649999995 254.79064940000006 147.14794909999995 256.75256350000006 C 145.32128889999996 257.7219239000001 143.43774399999995 258.58691410000006 141.64306629999996 259.61547850000005 C 140.25122059999995 260.41333010000005 138.50073229999995 261.57165530000003 137.69873039999996 262.2539062000001 C 136.89575189999996 262.9368896000001 136.15283199999996 263.67175290000006 135.44995109999996 264.4566650000001 C 135.41503899999995 264.4956054000001 135.32397449999996 264.6212158000001 135.25048819999998 264.7235107000001 C 135.0107421 265.08483880000006 134.79833979999998 265.4549560000001 134.580078 265.8306884000001 L 134.5449218 265.9034423000001 C 134.4985351 266.0808105000001 134.4218749 266.6312255000001 134.3862304 266.7193603000001 C 134.41503899999998 266.8071289000001 134.4658202 267.0963134000001 134.5144042 267.3214111000001 C 134.5881347 267.3641357000001 134.9079589 267.9237060000001 134.6965331 267.68212890000007 C 135.0786132 268.11865230000006 135.51245110000002 268.52856440000005 135.9672851 268.8885498000001 C 136.2478027 269.11035160000006 137.4138183 269.85083010000005 137.9787597 270.2224121000001 C 140.01953120000002 271.5649414000001 142.0620117 272.9051514000001 144.1035156 274.2465820000001 C 148.3911133 277.0635986000001 152.6884765 279.8659668000001 156.96630860000002 282.6977539000001 C 159.36499020000002 284.2856445000001 160.88183590000003 286.1502685000001 161.80493160000003 288.8843994000001 C 163.36132810000004 293.4956055000001 162.95288080000003 298.8453369000001 162.44604490000003 303.5999756000001 C 161.43847650000004 313.0501709000001 159.31176760000002 322.2961426000001 157.09545900000003 331.5180664000001 C 157.23974610000005 331.7742920000001 157.37255860000005 332.04406740000013 157.49853520000002 332.32849120000014 L 157.50048830000003 332.3305664000001 C 157.36035160000003 331.9959717000001 157.38061530000002 332.0025635000001 157.57104490000003 332.3708496000001 L 157.64208980000004 332.4852295000001 L 157.74047850000002 332.5930176000001 L 157.9174805 332.76379400000013 L 158.35693360000002 333.04150400000015 L 158.8535156 333.29809580000017 L 159.1101074 333.3883058000002 C 159.64501950000002 333.56311050000016 160.1926269 333.7006837000002 160.744873 333.8090822000002 L 160.8830566 333.83313010000023 C 161.1606445 333.8275149000002 161.5285644 333.9061281000002 161.7790527 333.92004420000023 C 162.3608398 333.95275900000024 162.9433593 333.9541018000002 163.52563469999998 333.9387210000002 C 164.35058589999997 333.9168704000002 165.17504879999998 333.8638919000002 165.9958495 333.78112820000024 C 166.0776366 333.77282740000027 166.47802719999999 333.71960480000024 166.6794433 333.69494660000026 C 166.8657226 333.66418490000024 167.06494130000002 333.63147000000026 167.1184081 333.62207060000026 C 168.6086425 333.36084010000025 170.08227530000002 333.0035403000003 171.52587880000002 332.5505374000003 C 172.24780260000003 332.3239749000003 172.9624022 332.07421900000026 173.66821280000002 331.80188020000026 C 173.82666010000003 331.74072300000023 173.96704090000003 331.68371610000025 174.05883780000002 331.6461185000002 C 174.3527831 331.51513710000023 174.64697260000003 331.38464390000024 174.93749990000003 331.2460941000002 C 176.30346670000003 330.5952152000002 177.62670890000004 329.85522500000025 178.89624010000003 329.03234900000024 C 179.53222640000004 328.6202396000002 180.14038070000004 328.17395060000024 180.75707990000004 327.73461950000024 L 180.76538070000004 327.7288822000002 L 180.88330060000004 327.6276859000002 C 181.19873030000005 327.3609623000002 181.51562480000004 327.09777870000016 181.82714830000003 326.8266605000002 C 183.93920880000005 324.98913610000017 186.78832990000004 324.88964880000015 188.89843740000003 326.8266605000002 C 190.79394520000002 328.5667728000002 190.87817370000005 332.17504920000016 188.89843740000003 333.8977054000002 C 182.73266590000003 339.26232940000017 175.32617180000003 342.5937503000002 167.22485340000003 343.6345218000002 C 163.76855460000002 344.0784915000002 160.14501940000002 344.1395267000002 156.77148430000003 343.13061560000017 C 156.06494130000002 342.9193119000002 155.39624020000002 342.65222200000017 154.74414050000001 342.3577885000002 C 152.12207020000002 357.3763432000002 152.3906249 372.9019780000002 156.6174315 387.6291508000002 C 157.77514630000002 391.6624760000002 159.20678700000002 395.2760014000002 161.6613768 398.75048870000023 C 163.6667479 401.58874550000024 166.28271469999999 403.79467820000025 168.93896469999999 405.49414100000024 C 175.33496079999998 409.58630410000023 182.11645489999998 411.4976810000002 189.60668929999997 413.74194370000026 C 197.23608379999996 416.0279544000003 204.72094709999996 418.5316166000003 211.76635729999998 422.30749550000024 C 218.7304686 426.03979530000026 225.27001939999997 430.78198280000026 230.8859862 436.3468021000002 C 240.6979979 446.06958040000023 247.74121079999998 458.85095250000023 248.5253905 472.6900638000002 C 285.2106932 472.55065950000017 321.89599599999997 472.4112552000002 358.58154279999997 472.2718509000002 C 351.12744119999996 454.7301029000002 344.46655259999994 436.0997318000002 346.62011699999994 416.8721927000002 C 347.73461899999995 407.88061560000017 350.5187985999999 399.4300540000002 354.99145489999995 391.53674350000017 C 363.770752 376.043335 377.2966309 364.1730957 390.6818848 352.7705078 z M 157.5192871 332.3743896 L 157.5175781 332.37207029999996 C 157.5644531 332.47888179999995 157.6113281 332.58520509999994 157.6574707 332.6958008 C 157.5979004 332.5600586 157.5576172 332.4650879 157.5192871 332.3743896 z M 134.5424805 265.9085693 C 134.4326172 266.1568604 134.347168 266.5740967 134.5424805 265.9085693 z M 99.8024826 265.9085693 C 99.6928635 266.1568604 99.6074142 266.5740967 99.8024826 265.9085693 z M 213.7905273 472.8220215 C 222.0385742 472.7906494 230.28662110000002 472.7593994 238.53466790000002 472.72802740000003 C 238.52099600000003 472.49011240000004 238.5246581 472.25207530000006 238.50659170000003 472.01416020000005 C 238.35766590000003 470.05712900000003 238.31396470000004 469.78076180000005 237.86425770000002 467.68676760000005 C 237.50292960000002 466.00292970000004 237.03930650000004 464.3417969000001 236.48535150000004 462.71142580000003 C 235.82250970000004 460.7609863 235.65380850000003 460.350586 234.83154290000004 458.6378174 C 228.30786130000004 445.04968260000004 216.27978510000005 435.25036620000003 202.54174800000004 428.852417 C 199.52661130000004 427.4482422 195.94775390000004 426.1547852 192.27563470000004 425.00354 C 188.54711910000003 423.83447259999997 184.78613270000005 422.77185049999997 181.06372060000004 421.58288569999996 C 173.17114250000003 419.06201169999997 165.41308580000003 415.93029779999995 159.03124990000003 410.5181884 C 152.20654290000004 404.7301025 148.46435540000004 396.4062499 146.33129870000005 387.8828124 C 143.88574210000004 378.1103515 142.74926750000006 367.90148919999996 143.07470690000005 357.83190909999996 C 143.35766590000006 349.08337389999997 144.67431630000004 340.33312979999994 146.73706040000005 331.831665 C 147.82958970000004 327.3289795 148.94165020000005 322.8325195 149.91137680000006 318.30102539999996 C 150.52465800000004 315.43530269999997 151.09204090000006 312.55895999999996 151.58178700000005 309.66931149999994 C 151.72290030000005 308.83679199999995 151.85766590000006 308.00317379999996 151.98437490000003 307.16833489999993 C 152.04711900000004 306.7546385999999 152.10522450000005 306.34033199999993 152.16674790000005 305.9265135999999 L 152.17529280000005 305.8692625999999 C 152.35546860000005 304.4610594999999 152.51611310000004 303.0505369999999 152.63281230000004 301.6354979999999 C 152.83520490000004 299.18310539999993 152.94384750000003 296.7015379999999 152.74291970000004 294.2451170999999 C 152.73193340000003 294.1097410999999 152.73583960000005 293.9293211999999 152.72705060000004 293.75353999999993 L 152.66601540000005 293.53552239999993 C 152.57495090000006 293.1032713999999 152.49707010000006 292.6712645999999 152.37890600000006 292.24462879999993 L 152.31079080000006 292.02038559999994 L 152.41406230000007 292.0933835999999 C 152.38671850000006 292.0808103999999 152.33300760000006 291.9990231999999 152.27172830000006 291.89196759999993 L 152.20019510000006 291.65661599999993 L 152.15185530000005 291.4908444999999 L 152.04638650000004 291.4190671999999 L 152.04321270000003 291.45007309999994 L 152.02001930000003 291.40112289999996 L 151.91918920000003 291.33251939999997 C 151.71508760000003 291.1983641 151.51074190000003 291.0642089 151.30664040000002 290.93005359999995 C 150.89819310000001 290.66174309999997 150.48999000000003 290.39343249999996 150.08154270000003 290.125122 C 147.93774390000002 288.71655269999997 145.79394500000004 287.3079833 143.65014620000002 285.899414 C 139.3891599 283.0998535 134.98779270000003 280.4368896 130.8496091 277.45861809999997 C 127.02587100000001 274.7065429 123.95458190000001 270.8118896 124.42382020000001 265.83374019999997 C 124.82762880000001 261.5471191 127.41307800000001 257.91113279999996 130.6276853 255.18286129999996 C 133.9816892 252.33618159999995 137.7084958 250.42211909999995 141.5725095 248.39648429999997 C 145.2790525 246.45336909999997 148.8833005 244.31347649999998 152.3542478 241.97509759999997 C 159.1179197 237.41809079999996 165.3220212 232.01269529999996 170.79565399999998 225.71545399999997 C 181.9450681 212.88842759999997 187.37280239999998 196.79455559999997 192.6083981 180.66253649999996 C 198.052734 163.88757309999997 203.9379879 147.17626939999997 215.6401364 133.62774649999994 C 226.4326169 121.13262169999994 240.73193329999998 112.24266809999995 255.8205563 105.83409869999994 C 254.0004879 106.17333209999994 252.18505829999998 106.53795609999995 250.3786618 106.94335159999994 C 233.7856442 110.66710649999995 218.1008298 116.66405469999994 204.0676266 126.32305129999995 C 197.6352536 130.75061019999995 191.5593258 136.22393779999996 186.464111 142.49871809999993 C 181.7189938 148.34222399999993 177.51367150000002 156.17266829999994 174.6296383 163.16772439999994 C 168.019775 179.20056129999995 164.27270470000002 196.27496319999995 156.7915035 211.97326639999994 C 149.3171383 227.65734839999993 137.4548336 240.52709939999994 123.1564861 250.27429179999996 C 119.69798999999999 252.63183569999995 116.10472829999999 254.79064919999996 112.4077068 256.75256329999996 C 110.5812908 257.7219237 108.6977459 258.58691389999996 106.9030681 259.61547829999995 C 105.5109783 260.41332989999995 103.7607341 261.57165509999993 102.958488 262.253906 C 102.1557536 262.9368894 101.41283370000001 263.67175269999996 100.7099528 264.4566648 C 100.6752848 264.4954832 100.58422039999999 264.6207273 100.5109782 264.7230222 C 100.270988 265.0843503 100.0583415 265.4548337 99.8400798 265.8306882 L 99.8049236 265.9034421 C 99.7585369 266.0806882 99.68187669999999 266.6309812 99.6459881 266.719238 C 99.67504079999999 266.8070066 99.72557789999999 267.0961911 99.7744061 267.32141090000005 C 99.84813659999999 267.36413550000003 100.16796079999999 267.92370580000005 99.95653499999999 267.6821287 C 100.33861509999998 268.1186521 100.77220879999999 268.5285642 101.22728699999999 268.88854960000003 C 101.50780459999999 269.1103514 102.6738202 269.8508299 103.23876159999999 270.22241190000005 C 105.2795331 271.5649412000001 107.3217694 272.90515120000003 109.36351749999999 274.24658180000006 C 113.65111519999999 277.06359840000005 117.94847839999998 279.86596660000004 122.22631049999998 282.6977537000001 C 124.62499209999999 284.28564430000006 126.14183779999998 286.15026830000005 127.06468939999998 288.8843992000001 C 128.62133769999997 293.4956053000001 128.21289039999996 298.8453367000001 127.70580269999998 303.59997540000006 C 126.57909369999997 314.1699217000001 124.05272649999998 324.48437480000007 121.56566599999998 334.79541000000006 C 121.47167189999998 335.1856688000001 121.38964059999998 335.57873520000004 121.29930859999997 335.96997050000004 C 123.48558789999997 336.06274390000004 125.66405469999998 336.28991680000007 127.75926949999997 336.93603500000006 C 132.63061499999998 338.43798810000004 136.26831029999997 341.7145995000001 139.16284159999998 345.81457500000005 C 140.7758787 348.09960920000003 139.4855955 351.2908934000001 137.3688963 352.65551740000006 C 136.3068846 353.3403319000001 134.7131346 353.48913560000005 133.51611309999998 353.1595457000001 C 132.19677719999999 352.79614240000006 131.29394509999997 351.9467771000001 130.52807599999997 350.8616941000001 C 130.45629869999996 350.75866680000007 130.38183579999998 350.6573484000001 130.30859359999997 350.5552976000001 C 130.14379869999996 350.4656980000001 129.85302719999996 349.9901121000001 129.76220689999997 349.88647440000005 C 129.38671859999997 349.45910620000006 128.99365219999996 349.04699690000007 128.58032209999996 348.65600560000007 C 128.36010729999995 348.4476316000001 128.13403299999996 348.2460935000001 127.90233599999996 348.05041480000006 C 127.53221879999997 347.7991941000001 127.16600789999997 347.54626440000004 126.77806839999997 347.32202120000005 C 126.57714069999997 347.20593230000003 126.37303909999997 347.0952146000001 126.16649609999996 346.98962370000004 C 126.09667189999996 346.95397920000005 125.91210159999996 346.86962860000006 125.76244339999997 346.80078090000006 L 125.71971879999997 346.7846676000001 C 125.51488479999996 346.7114254000001 125.30858599999996 346.6428219000001 125.10082229999996 346.5788571000001 C 124.41478709999996 346.3673092000001 123.71337109999996 346.2209469000001 123.00682819999996 346.0999753000001 C 121.82128129999995 345.9793698000001 120.63133989999996 345.9329831000001 119.44017779999996 345.9149167000001 C 117.45189659999996 359.8170163000001 117.98339069999996 374.0618894000001 121.87743369999995 387.6291501000001 C 123.03514849999995 391.6624753000001 124.46678919999995 395.2760007000001 126.92137899999996 398.75048800000013 C 128.92675769999997 401.58874480000014 131.54272449999996 403.79467750000015 134.19897449999996 405.49414030000014 C 140.59497059999995 409.58630340000013 147.37646469999996 411.4976803000001 154.86669909999995 413.74194300000016 C 162.49609359999994 416.0279537000002 169.98095689999994 418.5316159000002 177.02636709999996 422.30749480000014 C 183.99047839999997 426.03979460000016 190.53002919999994 430.78198210000016 196.14599599999997 436.3468014000001 C 205.9892578 446.1004639 213.0441895 458.932251 213.7905273 472.8220215 z M 473.0437012 224.4458008 C 466.19482419999997 193.7581177 449.4140625 166.0177002 426.3754883 144.6824341 C 414.9489746 134.10064699999998 402.1303711 125.30248259999999 387.8422852 118.4230881 C 375.7849122 112.6176071 362.6430664 108.3868943 349.41992189999996 105.9016037 C 374.5178223 116.35387419999999 396.9223633 133.01953129999998 414.21630859999993 154.0754395 C 435.24633789999996 179.6802979 448.7832030999999 210.9898682 451.2346190999999 244.15588379999997 C 453.67626949999993 277.19396969999997 444.68725579999995 311.31323239999995 422.6281737999999 336.51452639999997 C 410.3493651999999 350.5421143 394.9362792999999 361.2615967 381.6147460999999 374.2067871 C 369.6281737999999 385.8548584 358.7265624999999 399.8780517 356.62011719999987 416.8721924 C 354.4506835999999 436.24267580000003 361.8427733999999 454.88024900000005 369.4296874999999 472.3625488 C 377.39355469999987 472.3322754 385.3574218999999 472.302124 393.32153319999986 472.2718506 C 385.86743159999986 454.7301026 379.20654299999984 436.09973149999996 381.36010739999983 416.8721924 C 382.47460939999985 407.88061530000004 385.2590331999998 399.43005370000003 389.7316893999998 391.53674320000005 C 398.51098629999984 376.04333500000007 412.0366209999998 364.17309570000003 425.4218748999998 352.7705078 C 432.4177244999998 346.8109131 439.4453123999998 340.85607910000004 445.8522947999998 334.25463870000004 C 451.7456052999998 328.18249510000004 456.4423826999998 322.2332764 460.7490232999998 314.96459960000004 C 476.7043457 288.0354004 479.7744141 254.6047363 473.0437012 224.4458008 z M 234.652832 240.1452637 C 235.33837889999998 240.04931639999998 235.12670899999998 240.0848389 234.5678711 240.14428709999999 C 234.2978516 240.17297359999998 234.027832 240.19873049999998 233.7573242 240.22155759999998 C 233.1489258 240.27294919999997 232.5393066 240.3099365 231.9291992 240.331665 C 230.6411133 240.37744139999998 229.3508301 240.3569336 228.0646972 240.27307119999998 C 227.4550781 240.23327629999997 226.84814450000002 240.17138659999998 226.24023430000003 240.111328 L 226.14038080000003 240.10180649999998 C 225.87841790000004 240.0565184 225.61450190000002 240.02038559999997 225.35229490000003 239.97570789999997 C 224.08105470000004 239.75878899999998 222.82031250000003 239.48010239999996 221.57617190000002 239.14038079999997 C 220.39770510000002 238.81860349999997 219.23339850000002 238.44274899999996 218.0898438 238.01318349999997 C 217.83569340000003 237.91772449999996 217.58349610000002 237.81738269999997 217.3303223 237.71923819999998 L 217.2358399 237.6827392 L 217.2111817 237.6708984 C 216.659668 237.4085693 216.0998536 237.1651611 215.5529786 236.892456 C 214.3996583 236.31713860000002 213.2751466 235.68395990000002 212.18554699999999 234.9958496 C 211.66918959999998 234.66979980000002 211.16040049999998 234.33203120000002 210.66088879999998 233.98107910000002 C 210.43872079999997 233.82507320000002 210.22021499999997 233.6643066 209.9995118 233.50622560000002 L 209.86328129999998 233.4094238 L 209.72045899999998 233.29492180000003 C 207.67797849999997 231.66943350000003 204.61694339999997 231.15148920000001 202.64916989999998 233.29492180000003 C 200.9877929 235.10485830000002 200.46386719999998 238.6265868 202.64916989999998 240.36596670000003 C 212.55297849999997 248.24816880000003 224.78808589999997 251.54150380000004 237.31127929999997 249.78808580000003 C 239.91088869999996 249.42407210000005 241.56030269999997 245.97595200000004 240.80346679999997 243.63745100000003 C 239.8806152 240.7856445 237.439209 239.755127 234.652832 240.1452637 z" stroke-linecap="round" />
</g>
</g>
</g>
<g transform="matrix(-1.57685786924647 0.8379411202794591 -0.8379411202794591 -1.57685786924647 441.98467295252954 159.36828583468656)" id="text-logo-0"  >
<g style=""  paint-order="stroke"   >
		<g transform="matrix(1 0 0 1 0 0)" id="text-logo-0-path-0"  >
<path style="stroke: none; stroke-width: 0; stroke-dasharray: none; stroke-linecap: butt; stroke-dashoffset: 0; stroke-linejoin: miter; stroke-miterlimit: 4; fill: rgb(42,169,199); fill-rule: nonzero; opacity: 1;"  paint-order="stroke"  transform=" translate(-21.099999999999998, 26.605)" d="M 4.34 -6.66 L 3.69 -7.46 Q 1.81 -9.77 1.81 -11.62 Q 1.81 -13.46 4.92 -16.5 L 4.92 -16.5 Q 6.73 -18.24 8.76 -18.24 Q 10.79 -18.24 14.4 -14.62 L 14.4 -14.62 Q 15.42 -13.39 17.3 -12.27 Q 19.18 -11.15 20.77 -11.15 L 20.77 -11.15 Q 27.51 -11.15 27.51 -16.65 L 27.51 -16.65 Q 27.51 -18.31 25.66 -19.44 Q 23.81 -20.56 21.06 -21.06 Q 18.31 -21.57 15.13 -22.69 Q 11.94 -23.81 9.19 -25.34 Q 6.44 -26.86 4.6 -30.15 Q 2.75 -33.44 2.75 -38.07 L 2.75 -38.07 Q 2.75 -44.44 7.49 -49.19 Q 12.23 -53.93 20.41 -53.93 L 20.41 -53.93 Q 24.76 -53.93 28.34 -52.81 Q 31.92 -51.68 33.3 -50.53 L 33.3 -50.53 L 35.11 -49.15 Q 37.35 -47.05 37.35 -45.6 Q 37.35 -44.16 35.61 -41.62 L 35.61 -41.62 Q 33.15 -38 30.55 -38 L 30.55 -38 Q 29.03 -38 26.78 -39.45 L 26.78 -39.45 Q 26.57 -39.6 25.95 -40.17 Q 25.34 -40.75 24.83 -41.12 L 24.83 -41.12 Q 23.31 -42.06 20.96 -42.06 Q 18.6 -42.06 17.05 -40.93 Q 15.49 -39.81 15.49 -37.82 Q 15.49 -35.83 17.34 -34.6 Q 19.18 -33.37 21.93 -32.94 Q 24.68 -32.5 27.94 -31.6 Q 31.2 -30.69 33.95 -29.39 Q 36.7 -28.09 38.55 -24.86 Q 40.39 -21.64 40.39 -16.94 Q 40.39 -12.23 38.51 -8.65 Q 36.63 -5.07 33.59 -3.11 L 33.59 -3.11 Q 27.72 0.72 21.06 0.72 L 21.06 0.72 Q 17.66 0.72 14.62 -0.11 Q 11.58 -0.94 9.7 -2.17 L 9.7 -2.17 Q 5.86 -4.49 4.34 -6.66 L 4.34 -6.66 Z" stroke-linecap="round" />
</g>
</g>
</g>
<g transform="matrix(-1.132826726987141 1.3803367949465501 -1.3803367949465501 -1.132826726987141 336.8696696727349 245.5823871264513)" id="text-logo-1"  >
<g style=""  paint-order="stroke"   >
		<g transform="matrix(1 0 0 1 0 0)" id="text-logo-1-path-0"  >
<path style="stroke: none; stroke-width: 0; stroke-dasharray: none; stroke-linecap: butt; stroke-dashoffset: 0; stroke-linejoin: miter; stroke-miterlimit: 4; fill: rgb(42,169,199); fill-rule: nonzero; opacity: 1;"  paint-order="stroke"  transform=" translate(-23.419999999999998, 26.565)" d="M 42.06 -42.35 Q 43.94 -38.51 43.94 -33.8 Q 43.94 -29.1 42.06 -25.3 Q 40.17 -21.5 37.21 -19.25 L 37.21 -19.25 Q 31.2 -14.62 24.76 -14.62 L 24.76 -14.62 L 15.71 -14.62 L 15.71 -6.44 Q 15.71 -4.78 15.6 -3.95 Q 15.49 -3.11 14.91 -2.03 L 14.91 -2.03 Q 13.9 -0.07 9.27 -0.07 L 9.27 -0.07 Q 4.2 -0.07 3.33 -2.75 L 3.33 -2.75 Q 2.9 -3.98 2.9 -6.51 L 2.9 -6.51 L 2.9 -46.69 Q 2.9 -48.35 3 -49.19 Q 3.11 -50.02 3.69 -51.1 L 3.69 -51.1 Q 4.71 -53.06 9.34 -53.06 L 9.34 -53.06 L 24.83 -53.06 Q 31.2 -53.06 37.21 -48.43 L 37.21 -48.43 Q 40.17 -46.18 42.06 -42.35 Z M 24.83 -27.43 Q 27 -27.43 29.1 -29.03 Q 31.2 -30.62 31.2 -33.8 Q 31.2 -36.99 29.1 -38.62 Q 27 -40.25 24.76 -40.25 L 24.76 -40.25 L 15.71 -40.25 L 15.71 -27.43 L 24.83 -27.43 Z" stroke-linecap="round" />
</g>
</g>
</g>
<g transform="matrix(-0.49231680461240607 1.7164644548477965 -1.7164644548477965 -0.49231680461240607 272.35343288023 369.23679267429225)" id="text-logo-2"  >
<g style=""  paint-order="stroke"   >
		<g transform="matrix(1 0 0 1 0 0)" id="text-logo-2-path-0"  >
<path style="stroke: none; stroke-width: 0; stroke-dasharray: none; stroke-linecap: butt; stroke-dashoffset: 0; stroke-linejoin: miter; stroke-miterlimit: 4; fill: rgb(42,169,199); fill-rule: nonzero; opacity: 1;"  paint-order="stroke"  transform=" translate(-23.634999999999998, 26.53)" d="M 15.71 -20.12 L 15.71 -12.81 L 38 -12.81 Q 39.67 -12.81 40.5 -12.7 Q 41.33 -12.6 42.42 -12.02 L 42.42 -12.02 Q 44.37 -11 44.37 -6.37 L 44.37 -6.37 Q 44.37 -1.3 41.69 -0.43 L 41.69 -0.43 Q 40.46 0 37.93 0 L 37.93 0 L 9.27 0 Q 4.2 0 3.33 -2.75 L 3.33 -2.75 Q 2.9 -3.91 2.9 -6.44 L 2.9 -6.44 L 2.9 -46.69 Q 2.9 -50.38 4.27 -51.72 Q 5.65 -53.06 9.48 -53.06 L 9.48 -53.06 L 38 -53.06 Q 39.67 -53.06 40.5 -52.95 Q 41.33 -52.84 42.42 -52.26 L 42.42 -52.26 Q 44.37 -51.25 44.37 -46.62 L 44.37 -46.62 Q 44.37 -41.55 41.69 -40.68 L 41.69 -40.68 Q 40.46 -40.25 37.93 -40.25 L 37.93 -40.25 L 15.71 -40.25 L 15.71 -32.94 L 30.04 -32.94 Q 31.71 -32.94 32.54 -32.83 Q 33.37 -32.72 34.46 -32.14 L 34.46 -32.14 Q 36.41 -31.13 36.41 -26.49 L 36.41 -26.49 Q 36.41 -21.43 33.66 -20.56 L 33.66 -20.56 Q 32.43 -20.12 29.9 -20.12 L 29.9 -20.12 L 15.71 -20.12 Z" stroke-linecap="round" />
</g>
</g>
</g>
<g transform="matrix(0.28343149607358414 1.7630350671195405 -1.7630350671195405 0.28343149607358414 263.0156371729393 517.8890668860716)" id="text-logo-3"  >
<g style=""  paint-order="stroke"   >
		<g transform="matrix(1 0 0 1 0 0)" id="text-logo-3-path-0"  >
<path style="stroke: none; stroke-width: 0; stroke-dasharray: none; stroke-linecap: butt; stroke-dashoffset: 0; stroke-linejoin: miter; stroke-miterlimit: 4; fill: rgb(42,169,199); fill-rule: nonzero; opacity: 1;"  paint-order="stroke"  transform=" translate(-27.689999999999998, 26.17)" d="M 33.51 -49.29 L 33.51 -49.29 L 53.06 -8.9 Q 54.29 -6.44 54.29 -5.21 L 54.29 -5.21 Q 54.29 -2.61 50.09 -0.51 L 50.09 -0.51 Q 47.63 0.72 46.22 0.72 Q 44.81 0.72 43.9 0.07 Q 43 -0.58 42.6 -1.3 Q 42.2 -2.03 41.48 -3.47 L 41.48 -3.47 L 37.71 -11.29 L 17.66 -11.29 L 13.9 -3.47 Q 13.17 -2.03 12.78 -1.38 Q 12.38 -0.72 11.47 -0.04 Q 10.57 0.65 9.16 0.65 Q 7.75 0.65 5.28 -0.58 L 5.28 -0.58 Q 1.09 -2.61 1.09 -5.21 L 1.09 -5.21 Q 1.09 -6.44 2.32 -8.9 L 2.32 -8.9 L 21.86 -49.37 Q 22.66 -51.03 24.29 -52.05 Q 25.91 -53.06 27.72 -53.06 L 27.72 -53.06 Q 31.63 -53.06 33.51 -49.29 Z M 32.5 -22.01 L 27.65 -31.92 L 22.87 -22.01 L 32.5 -22.01 Z" stroke-linecap="round" />
</g>
</g>
</g>
<g transform="matrix(1.0063531197904563 1.4750862548162151 -1.4750862548162151 1.0063531197904563 319.40455737831564 657.2580336330487)" id="text-logo-4"  >
<g style=""  paint-order="stroke"   >
		<g transform="matrix(0.9999999999999999 0 0 1 0 0)" id="text-logo-4-path-0"  >
<path style="stroke: none; stroke-width: 0; stroke-dasharray: none; stroke-linecap: butt; stroke-dashoffset: 0; stroke-linejoin: miter; stroke-miterlimit: 4; fill: rgb(42,169,199); fill-rule: nonzero; opacity: 1;"  paint-order="stroke"  transform=" translate(-23.31, 26.605)" d="M 28.52 -29.39 L 25.62 -26.64 Q 36.7 -16 41.33 -10.64 L 41.33 -10.64 Q 43.72 -7.96 43.72 -6.12 Q 43.72 -4.27 40.83 -1.77 Q 37.93 0.72 36.08 0.72 Q 34.24 0.72 31.63 -2.32 L 31.63 -2.32 L 15.71 -20.49 L 15.71 -6.37 Q 15.71 -4.63 15.6 -3.84 Q 15.49 -3.04 14.91 -1.95 L 14.91 -1.95 Q 13.9 0 9.27 0 L 9.27 0 Q 4.2 0 3.33 -2.75 L 3.33 -2.75 Q 2.9 -3.91 2.9 -6.44 L 2.9 -6.44 L 2.9 -46.69 Q 2.9 -48.35 3 -49.19 Q 3.11 -50.02 3.69 -51.1 L 3.69 -51.1 Q 4.71 -53.06 9.34 -53.06 L 9.34 -53.06 Q 14.4 -53.06 15.35 -50.38 L 15.35 -50.38 Q 15.71 -49.15 15.71 -46.62 L 15.71 -46.62 L 15.71 -32.79 Q 25.55 -43.87 31.63 -50.96 L 31.63 -50.96 Q 34.17 -53.93 36.05 -53.93 Q 37.93 -53.93 40.83 -51.43 Q 43.72 -48.93 43.72 -47.09 Q 43.72 -45.24 41.55 -42.71 L 41.55 -42.71 Q 37.35 -37.86 28.52 -29.39 L 28.52 -29.39 Z" stroke-linecap="round" />
</g>
</g>
</g>
<g transform="matrix(0.7948855336886336 0.6067594155285405 -0.6067594155285405 0.7948855336886336 205.19026003302974 412.51297928340244)" id="text-logo-5"  >
<g style=""  paint-order="stroke"   >
		<g transform="matrix(0.9999999999999999 0 0 1 0 0)" id="text-logo-5-path-0"  >
<path style="stroke: none; stroke-width: 0; stroke-dasharray: none; stroke-linecap: butt; stroke-dashoffset: 0; stroke-linejoin: miter; stroke-miterlimit: 4; fill: rgb(42,169,199); fill-rule: nonzero; opacity: 1;"  paint-order="stroke"  transform=" translate(0, 0)" d="" stroke-linecap="round" />
</g>
</g>
</g>
<g transform="matrix(1.730979020428136 0.4385632128865391 -0.4385632128865391 1.730979020428136 518.9818921999146 796.3311166446936)" id="text-logo-6"  >
<g style=""  paint-order="stroke"   >
		<g transform="matrix(1 0 0 1 0 0)" id="text-logo-6-path-0"  >
<path style="stroke: none; stroke-width: 0; stroke-dasharray: none; stroke-linecap: butt; stroke-dashoffset: 0; stroke-linejoin: miter; stroke-miterlimit: 4; fill: rgb(42,169,199); fill-rule: nonzero; opacity: 1;"  paint-order="stroke"  transform=" translate(-36.160000000000004, 26.78)" d="M 66.38 -52.77 L 66.38 -52.77 Q 71.23 -51.03 71.23 -48.14 L 71.23 -48.14 Q 71.23 -47.2 70.36 -44.59 L 70.36 -44.59 L 56.46 -4.42 Q 56.32 -3.91 55.95 -3.18 Q 55.59 -2.46 54.04 -1.27 Q 52.48 -0.07 50.34 -0.07 Q 48.21 -0.07 46.65 -1.27 Q 45.1 -2.46 44.59 -3.62 L 44.59 -3.62 L 36.12 -28.59 Q 28.09 -4.85 27.94 -4.42 Q 27.8 -3.98 27.29 -3.18 Q 26.78 -2.39 26.13 -1.74 L 26.13 -1.74 Q 24.47 -0.07 22.15 -0.07 Q 19.83 -0.07 18.35 -1.16 Q 16.87 -2.24 16.36 -3.33 L 16.36 -3.33 L 15.85 -4.42 L 1.88 -44.59 Q 1.09 -46.98 1.09 -48.14 L 1.09 -48.14 Q 1.09 -51.03 5.94 -52.7 L 5.94 -52.7 Q 8.03 -53.42 9.74 -53.42 Q 11.44 -53.42 12.34 -52.26 Q 13.25 -51.1 13.97 -48.72 L 13.97 -48.72 L 21.93 -24.54 L 29.82 -48.35 Q 30.84 -51.39 33.51 -52.55 L 33.51 -52.55 Q 34.67 -53.06 36.52 -53.06 Q 38.36 -53.06 39.96 -51.86 Q 41.55 -50.67 41.98 -49.51 L 41.98 -49.51 L 50.31 -24.39 L 58.27 -48.72 Q 58.85 -50.38 59.21 -51.18 Q 59.57 -51.97 60.55 -52.73 Q 61.53 -53.49 62.98 -53.49 Q 64.42 -53.49 66.38 -52.77 Z" stroke-linecap="round" />
</g>
</g>
</g>
<g transform="matrix(1.7322465991785543 -0.43352944593654263 0.4335294459365426 1.732246599178554 687.9845318735221 796.7843632088815)" id="text-logo-7"  >
<g style=""  paint-order="stroke"   >
		<g transform="matrix(1 0 0 1 0 0)" id="text-logo-7-path-0"  >
<path style="stroke: none; stroke-width: 0; stroke-dasharray: none; stroke-linecap: butt; stroke-dashoffset: 0; stroke-linejoin: miter; stroke-miterlimit: 4; fill: rgb(42,169,199); fill-rule: nonzero; opacity: 1;"  paint-order="stroke"  transform=" translate(-23.634999999999998, 26.53)" d="M 15.71 -20.12 L 15.71 -12.81 L 38 -12.81 Q 39.67 -12.81 40.5 -12.7 Q 41.33 -12.6 42.42 -12.02 L 42.42 -12.02 Q 44.37 -11 44.37 -6.37 L 44.37 -6.37 Q 44.37 -1.3 41.69 -0.43 L 41.69 -0.43 Q 40.46 0 37.93 0 L 37.93 0 L 9.27 0 Q 4.2 0 3.33 -2.75 L 3.33 -2.75 Q 2.9 -3.91 2.9 -6.44 L 2.9 -6.44 L 2.9 -46.69 Q 2.9 -50.38 4.27 -51.72 Q 5.65 -53.06 9.48 -53.06 L 9.48 -53.06 L 38 -53.06 Q 39.67 -53.06 40.5 -52.95 Q 41.33 -52.84 42.42 -52.26 L 42.42 -52.26 Q 44.37 -51.25 44.37 -46.62 L 44.37 -46.62 Q 44.37 -41.55 41.69 -40.68 L 41.69 -40.68 Q 40.46 -40.25 37.93 -40.25 L 37.93 -40.25 L 15.71 -40.25 L 15.71 -32.94 L 30.04 -32.94 Q 31.71 -32.94 32.54 -32.83 Q 33.37 -32.72 34.46 -32.14 L 34.46 -32.14 Q 36.41 -31.13 36.41 -26.49 L 36.41 -26.49 Q 36.41 -21.43 33.66 -20.56 L 33.66 -20.56 Q 32.43 -20.12 29.9 -20.12 L 29.9 -20.12 L 15.71 -20.12 Z" stroke-linecap="round" />
</g>
</g>
</g>
<g transform="matrix(1.4294224664204669 -1.0702230951311702 1.0702230951311702 1.4294224664204667 810.4821631070447 738.1056207691565)" id="text-logo-8"  >
<g style=""  paint-order="stroke"   >
		<g transform="matrix(1 0 0 1 0 0)" id="text-logo-8-path-0"  >
<path style="stroke: none; stroke-width: 0; stroke-dasharray: none; stroke-linecap: butt; stroke-dashoffset: 0; stroke-linejoin: miter; stroke-miterlimit: 4; fill: rgb(42,169,199); fill-rule: nonzero; opacity: 1;"  paint-order="stroke"  transform=" translate(-21.79, 26.53)" d="M 15.71 -46.62 L 15.71 -10.71 L 35.4 -10.71 Q 37.79 -10.71 38.87 -10.17 Q 39.96 -9.63 40.32 -8.47 Q 40.68 -7.31 40.68 -5.39 Q 40.68 -3.47 40.32 -2.32 Q 39.96 -1.16 39.09 -0.72 L 39.09 -0.72 Q 37.71 0 35.32 0 L 35.32 0 L 9.27 0 Q 4.2 0 3.33 -2.75 L 3.33 -2.75 Q 2.9 -3.91 2.9 -6.44 L 2.9 -6.44 L 2.9 -46.69 Q 2.9 -48.35 3 -49.19 Q 3.11 -50.02 3.69 -51.1 L 3.69 -51.1 Q 4.71 -53.06 9.34 -53.06 L 9.34 -53.06 Q 14.4 -53.06 15.35 -50.38 L 15.35 -50.38 Q 15.71 -49.15 15.71 -46.62 L 15.71 -46.62 Z" stroke-linecap="round" />
</g>
</g>
</g>
<g transform="matrix(0.9216092183816794 -1.529464778755504 1.529464778755504 0.9216092183816794 898.723092704061 639.9838266580074)" id="text-logo-9"  >
<g style=""  paint-order="stroke"   >
		<g transform="matrix(1 0 0 1 -5.684342e-14 0)" id="text-logo-9-path-0"  >
<path style="stroke: none; stroke-width: 0; stroke-dasharray: none; stroke-linecap: butt; stroke-dashoffset: 0; stroke-linejoin: miter; stroke-miterlimit: 4; fill: rgb(42,169,199); fill-rule: nonzero; opacity: 1;"  paint-order="stroke"  transform=" translate(-21.79, 26.53)" d="M 15.71 -46.62 L 15.71 -10.71 L 35.4 -10.71 Q 37.79 -10.71 38.87 -10.17 Q 39.96 -9.63 40.32 -8.47 Q 40.68 -7.31 40.68 -5.39 Q 40.68 -3.47 40.32 -2.32 Q 39.96 -1.16 39.09 -0.72 L 39.09 -0.72 Q 37.71 0 35.32 0 L 35.32 0 L 9.27 0 Q 4.2 0 3.33 -2.75 L 3.33 -2.75 Q 2.9 -3.91 2.9 -6.44 L 2.9 -6.44 L 2.9 -46.69 Q 2.9 -48.35 3 -49.19 Q 3.11 -50.02 3.69 -51.1 L 3.69 -51.1 Q 4.71 -53.06 9.34 -53.06 L 9.34 -53.06 Q 14.4 -53.06 15.35 -50.38 L 15.35 -50.38 Q 15.71 -49.15 15.71 -46.62 L 15.71 -46.62 Z" stroke-linecap="round" />
</g>
</g>
</g>
<g transform="matrix(0.22383038791638069 -1.771588557849964 1.7715885578499637 0.22383038791638066 944.97311756291 506.3103196337169)" id="text-logo-10"  >
<g style=""  paint-order="stroke"   >
		<g transform="matrix(0.9999999999999999 0 0 1 0 2.842171e-14)" id="text-logo-10-path-0"  >
<path style="stroke: none; stroke-width: 0; stroke-dasharray: none; stroke-linecap: butt; stroke-dashoffset: 0; stroke-linejoin: miter; stroke-miterlimit: 4; fill: rgb(42,169,199); fill-rule: nonzero; opacity: 1;"  paint-order="stroke"  transform=" translate(-26.06, 26.495)" d="M 37.17 -50.85 Q 37.86 -52.12 39.23 -52.55 Q 40.61 -52.99 42.67 -52.99 Q 44.73 -52.99 46 -52.62 Q 47.27 -52.26 47.88 -51.76 Q 48.5 -51.25 48.79 -50.24 L 48.79 -50.24 Q 49.22 -49.08 49.22 -46.54 L 49.22 -46.54 L 49.22 -6.37 Q 49.22 -4.63 49.11 -3.84 Q 49.01 -3.04 48.43 -1.95 L 48.43 -1.95 Q 47.41 0 42.78 0 L 42.78 0 Q 39.96 0 38.87 -0.43 Q 37.79 -0.87 37.06 -1.81 L 37.06 -1.81 Q 20.77 -23.53 15.64 -30.18 L 15.64 -30.18 L 15.64 -6.37 Q 15.64 -4.63 15.53 -3.84 Q 15.42 -3.04 14.84 -1.95 L 14.84 -1.95 Q 13.83 0 9.19 0 L 9.19 0 Q 4.71 0 3.69 -1.95 L 3.69 -1.95 Q 3.11 -3.04 3 -3.91 Q 2.9 -4.78 2.9 -6.44 L 2.9 -6.44 L 2.9 -46.83 Q 2.9 -49.58 3.58 -50.85 Q 4.27 -52.12 5.65 -52.55 Q 7.02 -52.99 9.19 -52.99 Q 11.36 -52.99 12.63 -52.59 Q 13.9 -52.19 14.4 -51.68 L 14.4 -51.68 Q 14.69 -51.47 16.07 -49.8 L 16.07 -49.8 Q 31.34 -29.03 36.48 -22.37 L 36.48 -22.37 L 36.48 -46.83 Q 36.48 -49.58 37.17 -50.85 Z" stroke-linecap="round" />
</g>
</g>
</g>
<g transform="matrix(-0.532097901272245 -1.7045521066606864 1.7045521066606864 -0.532097901272245 931.6868379150707 359.6475330601792)" id="text-logo-11"  >
<g style=""  paint-order="stroke"   >
		<g transform="matrix(1 0 0 1 0 0)" id="text-logo-11-path-0"  >
<path style="stroke: none; stroke-width: 0; stroke-dasharray: none; stroke-linecap: butt; stroke-dashoffset: 0; stroke-linejoin: miter; stroke-miterlimit: 4; fill: rgb(42,169,199); fill-rule: nonzero; opacity: 1;"  paint-order="stroke"  transform=" translate(-23.634999999999998, 26.53)" d="M 15.71 -20.12 L 15.71 -12.81 L 38 -12.81 Q 39.67 -12.81 40.5 -12.7 Q 41.33 -12.6 42.42 -12.02 L 42.42 -12.02 Q 44.37 -11 44.37 -6.37 L 44.37 -6.37 Q 44.37 -1.3 41.69 -0.43 L 41.69 -0.43 Q 40.46 0 37.93 0 L 37.93 0 L 9.27 0 Q 4.2 0 3.33 -2.75 L 3.33 -2.75 Q 2.9 -3.91 2.9 -6.44 L 2.9 -6.44 L 2.9 -46.69 Q 2.9 -50.38 4.27 -51.72 Q 5.65 -53.06 9.48 -53.06 L 9.48 -53.06 L 38 -53.06 Q 39.67 -53.06 40.5 -52.95 Q 41.33 -52.84 42.42 -52.26 L 42.42 -52.26 Q 44.37 -51.25 44.37 -46.62 L 44.37 -46.62 Q 44.37 -41.55 41.69 -40.68 L 41.69 -40.68 Q 40.46 -40.25 37.93 -40.25 L 37.93 -40.25 L 15.71 -40.25 L 15.71 -32.94 L 30.04 -32.94 Q 31.71 -32.94 32.54 -32.83 Q 33.37 -32.72 34.46 -32.14 L 34.46 -32.14 Q 36.41 -31.13 36.41 -26.49 L 36.41 -26.49 Q 36.41 -21.43 33.66 -20.56 L 33.66 -20.56 Q 32.43 -20.12 29.9 -20.12 L 29.9 -20.12 L 15.71 -20.12 Z" stroke-linecap="round" />
</g>
</g>
</g>
<g transform="matrix(-1.1488002268044295 -1.3670713586912002 1.3670713586912002 -1.1488002268044295 866.8216977300935 241.79894237489265)" id="text-logo-12"  >
<g style=""  paint-order="stroke"   >
		<g transform="matrix(1 0 0 1 0 0)" id="text-logo-12-path-0"  >
<path style="stroke: none; stroke-width: 0; stroke-dasharray: none; stroke-linecap: butt; stroke-dashoffset: 0; stroke-linejoin: miter; stroke-miterlimit: 4; fill: rgb(42,169,199); fill-rule: nonzero; opacity: 1;"  paint-order="stroke"  transform=" translate(-21.099999999999998, 26.605)" d="M 4.34 -6.66 L 3.69 -7.46 Q 1.81 -9.77 1.81 -11.62 Q 1.81 -13.46 4.92 -16.5 L 4.92 -16.5 Q 6.73 -18.24 8.76 -18.24 Q 10.79 -18.24 14.4 -14.62 L 14.4 -14.62 Q 15.42 -13.39 17.3 -12.27 Q 19.18 -11.15 20.77 -11.15 L 20.77 -11.15 Q 27.51 -11.15 27.51 -16.65 L 27.51 -16.65 Q 27.51 -18.31 25.66 -19.44 Q 23.81 -20.56 21.06 -21.06 Q 18.31 -21.57 15.13 -22.69 Q 11.94 -23.81 9.19 -25.34 Q 6.44 -26.86 4.6 -30.15 Q 2.75 -33.44 2.75 -38.07 L 2.75 -38.07 Q 2.75 -44.44 7.49 -49.19 Q 12.23 -53.93 20.41 -53.93 L 20.41 -53.93 Q 24.76 -53.93 28.34 -52.81 Q 31.92 -51.68 33.3 -50.53 L 33.3 -50.53 L 35.11 -49.15 Q 37.35 -47.05 37.35 -45.6 Q 37.35 -44.16 35.61 -41.62 L 35.61 -41.62 Q 33.15 -38 30.55 -38 L 30.55 -38 Q 29.03 -38 26.78 -39.45 L 26.78 -39.45 Q 26.57 -39.6 25.95 -40.17 Q 25.34 -40.75 24.83 -41.12 L 24.83 -41.12 Q 23.31 -42.06 20.96 -42.06 Q 18.6 -42.06 17.05 -40.93 Q 15.49 -39.81 15.49 -37.82 Q 15.49 -35.83 17.34 -34.6 Q 19.18 -33.37 21.93 -32.94 Q 24.68 -32.5 27.94 -31.6 Q 31.2 -30.69 33.95 -29.39 Q 36.7 -28.09 38.55 -24.86 Q 40.39 -21.64 40.39 -16.94 Q 40.39 -12.23 38.51 -8.65 Q 36.63 -5.07 33.59 -3.11 L 33.59 -3.11 Q 27.72 0.72 21.06 0.72 L 21.06 0.72 Q 17.66 0.72 14.62 -0.11 Q 11.58 -0.94 9.7 -2.17 L 9.7 -2.17 Q 5.86 -4.49 4.34 -6.66 L 4.34 -6.66 Z" stroke-linecap="round" />
</g>
</g>
</g>
<g transform="matrix(-1.5768578692464694 -0.8379411202794604 0.8379411202794604 -1.5768578692464694 764.873654801621 159.33797493920525)" id="text-logo-13"  >
<g style=""  paint-order="stroke"   >
		<g transform="matrix(1 0 0 1 0 0)" id="text-logo-13-path-0"  >
<path style="stroke: none; stroke-width: 0; stroke-dasharray: none; stroke-linecap: butt; stroke-dashoffset: 0; stroke-linejoin: miter; stroke-miterlimit: 4; fill: rgb(42,169,199); fill-rule: nonzero; opacity: 1;"  paint-order="stroke"  transform=" translate(-21.099999999999998, 26.605)" d="M 4.34 -6.66 L 3.69 -7.46 Q 1.81 -9.77 1.81 -11.62 Q 1.81 -13.46 4.92 -16.5 L 4.92 -16.5 Q 6.73 -18.24 8.76 -18.24 Q 10.79 -18.24 14.4 -14.62 L 14.4 -14.62 Q 15.42 -13.39 17.3 -12.27 Q 19.18 -11.15 20.77 -11.15 L 20.77 -11.15 Q 27.51 -11.15 27.51 -16.65 L 27.51 -16.65 Q 27.51 -18.31 25.66 -19.44 Q 23.81 -20.56 21.06 -21.06 Q 18.31 -21.57 15.13 -22.69 Q 11.94 -23.81 9.19 -25.34 Q 6.44 -26.86 4.6 -30.15 Q 2.75 -33.44 2.75 -38.07 L 2.75 -38.07 Q 2.75 -44.44 7.49 -49.19 Q 12.23 -53.93 20.41 -53.93 L 20.41 -53.93 Q 24.76 -53.93 28.34 -52.81 Q 31.92 -51.68 33.3 -50.53 L 33.3 -50.53 L 35.11 -49.15 Q 37.35 -47.05 37.35 -45.6 Q 37.35 -44.16 35.61 -41.62 L 35.61 -41.62 Q 33.15 -38 30.55 -38 L 30.55 -38 Q 29.03 -38 26.78 -39.45 L 26.78 -39.45 Q 26.57 -39.6 25.95 -40.17 Q 25.34 -40.75 24.83 -41.12 L 24.83 -41.12 Q 23.31 -42.06 20.96 -42.06 Q 18.6 -42.06 17.05 -40.93 Q 15.49 -39.81 15.49 -37.82 Q 15.49 -35.83 17.34 -34.6 Q 19.18 -33.37 21.93 -32.94 Q 24.68 -32.5 27.94 -31.6 Q 31.2 -30.69 33.95 -29.39 Q 36.7 -28.09 38.55 -24.86 Q 40.39 -21.64 40.39 -16.94 Q 40.39 -12.23 38.51 -8.65 Q 36.63 -5.07 33.59 -3.11 L 33.59 -3.11 Q 27.72 0.72 21.06 0.72 L 21.06 0.72 Q 17.66 0.72 14.62 -0.11 Q 11.58 -0.94 9.7 -2.17 L 9.7 -2.17 Q 5.86 -4.49 4.34 -6.66 L 4.34 -6.66 Z" stroke-linecap="round" />
</g>
</g>
</g>
<g transform="matrix(1.7856724394075507 0 0 1.7856724394075507 719.4057014482463 924.7725849794765)" id="tagline-67a2eb4d-7c6b-4bd1-9109-a614234bde54-logo"  >
<g style=""  paint-order="stroke"   >
		<g transform="matrix(1 0 0 1 0 0)" id="tagline-67a2eb4d-7c6b-4bd1-9109-a614234bde54-logo-path-0"  >
<path style="stroke: none; stroke-width: 0; stroke-dasharray: none; stroke-linecap: butt; stroke-dashoffset: 0; stroke-linejoin: miter; stroke-miterlimit: 4; fill: rgb(0,0,0); fill-rule: nonzero; opacity: 1;"  paint-order="stroke"  transform=" translate(-307.75000000000006, 11.87)" d="M 5.85 0 L 9.41 0 L 12.93 -14.29 C 13.32 -16.17 13.74 -17.88 14.13 -19.69 L 14.26 -19.69 C 14.65 -17.88 15 -16.17 15.42 -14.29 L 19.01 0 L 22.6 0 L 27.52 -23.7 L 24.64 -23.7 L 22.15 -10.8 C 21.7 -8.28 21.25 -5.72 20.79 -3.14 L 20.63 -3.14 C 20.08 -5.72 19.53 -8.28 18.95 -10.8 L 15.62 -23.7 L 12.9 -23.7 L 9.64 -10.8 C 9.05 -8.25 8.47 -5.69 7.92 -3.14 L 7.79 -3.14 C 7.34 -5.69 6.86 -8.25 6.4 -10.8 L 3.91 -23.7 L 0.81 -23.7 Z M 46.86 0 L 60.89 0 L 60.89 -2.55 L 49.86 -2.55 L 49.86 -11.19 L 58.85 -11.19 L 58.85 -13.74 L 49.86 -13.74 L 49.86 -21.18 L 60.53 -21.18 L 60.53 -23.7 L 46.86 -23.7 Z M 106.52 -9.64 L 107.68 -13.26 C 108.52 -15.94 109.3 -18.5 110.04 -21.28 L 110.17 -21.28 C 110.95 -18.53 111.69 -15.94 112.56 -13.26 L 113.7 -9.64 Z M 116.7 0 L 119.87 0 L 111.82 -23.7 L 108.49 -23.7 L 100.44 0 L 103.48 0 L 105.77 -7.24 L 114.44 -7.24 Z M 141.44 -21.28 L 145.42 -21.28 C 149.14 -21.28 151.17 -20.18 151.17 -17.04 C 151.17 -13.97 149.14 -12.48 145.42 -12.48 L 141.44 -12.48 Z M 154.86 0 L 148.78 -10.38 C 152.01 -11.16 154.15 -13.36 154.15 -17.04 C 154.15 -21.99 150.69 -23.7 145.87 -23.7 L 138.43 -23.7 L 138.43 0 L 141.44 0 L 141.44 -10.06 L 145.71 -10.06 L 151.46 0 Z M 174.2 0 L 188.23 0 L 188.23 -2.55 L 177.2 -2.55 L 177.2 -11.19 L 186.19 -11.19 L 186.19 -13.74 L 177.2 -13.74 L 177.2 -21.18 L 187.88 -21.18 L 187.88 -23.7 L 174.2 -23.7 Z M 230.92 0 L 233.92 0 L 233.92 -11.19 L 244.98 -11.19 L 244.98 0 L 247.96 0 L 247.96 -23.7 L 244.98 -23.7 L 244.98 -13.78 L 233.92 -13.78 L 233.92 -23.7 L 230.92 -23.7 Z M 269.69 0 L 283.72 0 L 283.72 -2.55 L 272.69 -2.55 L 272.69 -11.19 L 281.68 -11.19 L 281.68 -13.74 L 272.69 -13.74 L 272.69 -21.18 L 283.37 -21.18 L 283.37 -23.7 L 269.69 -23.7 Z M 306.94 -21.28 L 310.92 -21.28 C 314.63 -21.28 316.67 -20.18 316.67 -17.04 C 316.67 -13.97 314.63 -12.48 310.92 -12.48 L 306.94 -12.48 Z M 320.36 0 L 314.28 -10.38 C 317.51 -11.16 319.65 -13.36 319.65 -17.04 C 319.65 -21.99 316.19 -23.7 311.37 -23.7 L 303.93 -23.7 L 303.93 0 L 306.94 0 L 306.94 -10.06 L 311.21 -10.06 L 316.96 0 Z M 339.7 0 L 353.73 0 L 353.73 -2.55 L 342.7 -2.55 L 342.7 -11.19 L 351.69 -11.19 L 351.69 -13.74 L 342.7 -13.74 L 342.7 -21.18 L 353.37 -21.18 L 353.37 -23.7 L 339.7 -23.7 Z M 396.41 0 L 399.42 0 L 399.42 -10.64 L 408.48 -10.64 L 408.48 -13.16 L 399.42 -13.16 L 399.42 -21.18 L 410.09 -21.18 L 410.09 -23.7 L 396.41 -23.7 Z M 437.9 0.42 C 443.85 0.42 448.02 -4.33 448.02 -11.93 C 448.02 -19.53 443.85 -24.16 437.9 -24.16 C 431.95 -24.16 427.78 -19.53 427.78 -11.93 C 427.78 -4.33 431.95 0.42 437.9 0.42 Z M 437.9 -2.2 C 433.63 -2.2 430.85 -6.01 430.85 -11.93 C 430.85 -17.88 433.63 -21.54 437.9 -21.54 C 442.14 -21.54 444.95 -17.88 444.95 -11.93 C 444.95 -6.01 442.14 -2.2 437.9 -2.2 Z M 471.37 -21.28 L 475.35 -21.28 C 479.07 -21.28 481.1 -20.18 481.1 -17.04 C 481.1 -13.97 479.07 -12.48 475.35 -12.48 L 471.37 -12.48 Z M 484.79 0 L 478.71 -10.38 C 481.94 -11.16 484.08 -13.36 484.08 -17.04 C 484.08 -21.99 480.62 -23.7 475.8 -23.7 L 468.36 -23.7 L 468.36 0 L 471.37 0 L 471.37 -10.06 L 475.64 -10.06 L 481.39 0 Z M 530.45 0 L 533.46 0 L 533.46 -9.22 L 540.57 -23.7 L 537.47 -23.7 L 534.39 -17.01 C 533.68 -15.26 532.87 -13.61 532.03 -11.84 L 531.9 -11.84 C 531.06 -13.61 530.35 -15.26 529.58 -17.01 L 526.54 -23.7 L 523.34 -23.7 L 530.45 -9.22 Z M 567.28 0.42 C 573.23 0.42 577.4 -4.33 577.4 -11.93 C 577.4 -19.53 573.23 -24.16 567.28 -24.16 C 561.33 -24.16 557.16 -19.53 557.16 -11.93 C 557.16 -4.33 561.33 0.42 567.28 0.42 Z M 567.28 -2.2 C 563.01 -2.2 560.23 -6.01 560.23 -11.93 C 560.23 -17.88 563.01 -21.54 567.28 -21.54 C 571.52 -21.54 574.33 -17.88 574.33 -11.93 C 574.33 -6.01 571.52 -2.2 567.28 -2.2 Z M 606.15 0.42 C 611 0.42 614.69 -2.17 614.69 -9.8 L 614.69 -23.7 L 611.81 -23.7 L 611.81 -9.7 C 611.81 -3.98 609.32 -2.2 606.15 -2.2 C 603.08 -2.2 600.65 -3.98 600.65 -9.7 L 600.65 -23.7 L 597.64 -23.7 L 597.64 -9.8 C 597.64 -2.17 601.33 0.42 606.15 0.42 Z" stroke-linecap="round" />
</g>
</g>
</g>
</svg>